<?xml version="1.0" standalone="no"?>
<!DOCTYPE svg PUBLIC "-//W3C//DTD SVG 1.1//EN" "http://www.w3.org/Graphics/SVG/1.1/DTD/svg11.dtd" >
<svg xmlns="http://www.w3.org/2000/svg">
<metadata>Generated by IcoMoon</metadata>
<defs>
<font id="pageflex-icons" horiz-adv-x="1024">
<font-face units-per-em="1024" ascent="960" descent="-64" />
<missing-glyph horiz-adv-x="1024" />
<glyph unicode="&#x20;" horiz-adv-x="512" d="" />
<glyph unicode="&#xe900;" glyph-name="pf_btn_next_arrow" d="M641.707 426.667v6.827l-238.933 245.76h-10.24c0 0 0 0 0 0-5.655 0-10.24-4.585-10.24-10.24v-3.413l232.107-238.933-232.107-238.933v-6.827c0-5.655 4.585-10.24 10.24-10.24 0 0 0 0 0 0h6.827l238.933 245.76v10.24z" />
<glyph unicode="&#xe901;" glyph-name="pf_btn_prv_arrow" d="M638.293 187.734l-232.107 238.933 232.107 238.933v6.827c0 5.655-4.585 10.24-10.24 10.24 0 0 0 0 0 0h-3.413l-238.933-245.76v-13.653l238.933-245.76h6.827c0 0 0 0 0 0 5.655 0 10.24 4.585 10.24 10.24 0 0 0 0 0 0v0 0z" />
<glyph unicode="&#xe902;" glyph-name="pf_btn_remove" d="M587.093 426.667l416.427 416.427c11.092 10.192 18.018 24.767 18.018 40.96 0 30.688-24.877 55.565-55.565 55.565-14.495 0-27.694-5.55-37.587-14.641l-416.387-423.217-416.427 423.253c-10.483 10.483-24.964 16.966-40.96 16.966-31.992 0-57.926-25.934-57.926-57.926 0-15.996 6.484-30.477 16.966-40.96l423.253-416.427-423.253-416.427c-9.26-9.765-14.954-22.991-14.954-37.547s5.694-27.781 14.977-37.571l40.937-20.456 40.96 13.653 416.427 423.253 416.427-416.427 40.96-20.48 40.96 13.653c9.26 9.765 14.954 22.991 14.954 37.547s-5.694 27.781-14.977 37.571z" />
<glyph unicode="&#xe903;" glyph-name="pf_icn_collapse" d="M1024 387.282h-1024v78.769h1024v-78.769z" />
<glyph unicode="&#xe904;" glyph-name="pf_icn_expand" d="M1024 466.052h-472.615v472.615h-78.769v-472.615h-472.615v-78.769h472.615v-472.615h78.769v472.615h472.615v78.769z" />
<glyph unicode="&#xe905;" glyph-name="pf_icn_info" d="M577.536 217.771l-12.288 12.288c-2.505 4.759-4.010 10.386-4.096 16.357v245.787h-4.096l-135.168-8.192v-20.48h20.48l16.384-8.192 12.288-12.288c2.674-4.978 4.245-10.892 4.245-17.173 0-1.164-0.054-2.316-0.16-3.452l0.011-180.078c-0.231-6.001-1.718-11.604-4.203-16.623l-12.181-12.049h-32.768v-20.48h176.128v16.384h-24.576zM507.904 549.547c14.52 0.445 27.513 6.637 36.846 16.366 10.157 9.73 16.459 23.378 16.459 38.498 0 0.873-0.021 1.74-0.062 2.602 0.041 0.619 0.062 1.487 0.062 2.359 0 15.12-6.302 28.768-16.423 38.461-9.764 10.43-23.59 16.918-38.931 16.918s-29.168-6.488-38.884-16.87c-9.463-10.22-15.25-23.905-15.25-38.942s5.788-28.722 15.257-38.95c9.596-12.222 24.307-20.114 40.872-20.442zM512 938.667c-282.77 0-512-229.23-512-512s229.23-512 512-512c282.77 0 512 229.23 512 512s-229.23 512-512 512zM512-48.469c-262.41 0-475.136 212.726-475.136 475.136s212.726 475.136 475.136 475.136c262.41 0 475.136-212.726 475.136-475.136s-212.726-475.136-475.136-475.136z" />
<glyph unicode="&#xe906;" glyph-name="pf_icn_menu" horiz-adv-x="1536" d="M1216 362.667h-1216v128h1216v-128zM1536 938.667h-1536v-128h1536v128zM1536 42.667h-1536v-128h1536v128z" />
<glyph unicode="&#xe907;" glyph-name="pf_icn_cart" d="M243.712 619.179c0-6.786 5.502-12.288 12.288-12.288h71.68l69.632-296.96c-18.958-5.5-32.609-22.638-32.768-42.99 1.074-24.458 20.616-44.001 44.957-45.071 0.711-0.033 1.427-0.050 2.147-0.050 24.884 0 45.056 20.172 45.056 45.056 0 0.016 0 0.033 0 0.049-0.035 8.304-2.313 16.071-6.258 22.734l174.194-0.209c-4.342-6.995-6.915-15.482-6.915-24.57 0-26.015 21.089-47.104 47.104-47.104s47.104 21.089 47.104 47.104c0 25.744-20.652 46.664-46.292 47.097l-245.801 0.001-6.144 22.528h284.672c5.278 0.849 9.391 4.962 10.231 10.17l69.641 208.966c0.461 1.24 0.728 2.672 0.728 4.167 0 6.322-4.774 11.528-10.913 12.212l-409.656 0.005-10.24 53.248c-0.888 4.825-5.063 8.433-10.079 8.433-0.783 0-1.545-0.088-2.277-0.254l-81.851 0.013c-5.849-1.015-10.241-6.053-10.241-12.116 0-0.060 0-0.121 0.001-0.181zM665.6 291.499c12.442 0 22.528-10.086 22.528-22.528s-10.086-22.528-22.528-22.528c-12.442 0-22.528 10.086-22.528 22.528s10.086 22.528 22.528 22.528c0 0 0 0 0 0zM409.6 291.499c12.442 0 22.528-10.086 22.528-22.528s-10.086-22.528-22.528-22.528c-12.442 0-22.528 10.086-22.528 22.528s10.086 22.528 22.528 22.528c0 0 0 0 0 0z" />
<glyph unicode="&#xe908;" glyph-name="pf_icn_delete" horiz-adv-x="770" d="M221.184 717.483c-0.156 0.005-0.339 0.008-0.522 0.008-9.049 0-16.384-7.335-16.384-16.384 0-1.459 0.191-2.873 0.548-4.219l36.838-659.342c1.066-9.323 8.911-16.497 18.432-16.497 10.242 0 18.545 8.303 18.545 18.545 0 0.722-0.041 1.433-0.121 2.134l-36.856 659.37c0.005 0.156 0.008 0.339 0.008 0.522 0 9.049-7.335 16.384-16.384 16.384-1.459 0-2.873-0.191-4.219-0.548zM532.48 701.099l-36.864-655.36c-0.072-0.615-0.113-1.326-0.113-2.048 0-10.242 8.303-18.545 18.545-18.545 9.521 0 17.366 7.174 18.424 16.412l36.872 655.446c0.072 0.615 0.113 1.326 0.113 2.048 0 10.242-8.303 18.545-18.545 18.545-9.521 0-17.366-7.174-18.424-16.412zM385.024 717.483c0 0 0 0 0 0-9.049 0-16.384-7.335-16.384-16.384 0 0 0 0 0 0v-659.456c0-10.18 8.252-18.432 18.432-18.432s18.432 8.252 18.432 18.432v659.456c0.005 0.156 0.008 0.339 0.008 0.522 0 9.049-7.335 16.384-16.384 16.384-1.459 0-2.873-0.191-4.219-0.548zM749.568 828.075h-200.704v36.864c0 40.719-33.009 73.728-73.728 73.728 0 0 0 0 0 0h-184.32c0 0 0 0 0 0-40.719 0-73.728-33.009-73.728-73.728v-36.864h-200.704c-10.18 0-18.432-8.252-18.432-18.432s8.252-18.432 18.432-18.432h16.384l73.728-802.816c0-40.719 33.009-73.728 73.728-73.728 0 0 0 0 0 0h401.408c0 0 0 0 0 0 40.719 0 73.728 33.009 73.728 73.728l73.728 802.816h16.384c0.615-0.072 1.326-0.113 2.048-0.113 10.242 0 18.545 8.303 18.545 18.545 0 9.521-7.174 17.366-16.412 18.424zM253.952 864.939c0 20.359 16.505 36.864 36.864 36.864 0 0 0 0 0 0h184.32c0 0 0 0 0 0 20.359 0 36.864-16.505 36.864-36.864 0 0 0 0 0 0v-36.864h-253.952v36.864zM618.496-11.605c0-20.359-16.505-36.864-36.864-36.864 0 0 0 0 0 0h-401.408c0 0 0 0 0 0-20.359 0-36.864 16.505-36.864 36.864 0 0 0 0 0 0l-73.728 802.816h622.592z" />
<glyph unicode="&#xe909;" glyph-name="pf_icn_download" d="M438.272 445.099c-0.912 0.353-1.968 0.557-3.072 0.557-4.832 0-8.749-3.917-8.749-8.749 0-3.728 2.332-6.912 5.617-8.172l73.788-73.748h12.288l73.728 73.728c3.345 1.28 5.677 4.464 5.677 8.192 0 4.832-3.917 8.749-8.749 8.749-1.104 0-2.16-0.204-3.132-0.577l-6.084 0.020-59.392-59.392v288.768c0 5.090-4.126 9.216-9.216 9.216s-9.216-4.126-9.216-9.216v-288.768l-57.344 57.344h-6.144zM686.080 537.259h-118.784c-5.090 0-9.216-4.126-9.216-9.216s4.126-9.216 9.216-9.216h118.784v-329.728h-348.16v329.728h118.784c5.090 0 9.216 4.126 9.216 9.216s-4.126 9.216-9.216 9.216h-118.784c0 0 0 0 0 0-10.18 0-18.432-8.252-18.432-18.432v-329.728c0-10.18 8.252-18.432 18.432-18.432h348.16c10.18 0 18.432 8.252 18.432 18.432v329.728c0 10.18-8.252 18.432-18.432 18.432z" />
<glyph unicode="&#xe90a;" glyph-name="pf_icn_hide_files" d="M417.792 248.491h-4.096c-1.357-1.135-2.215-2.829-2.215-4.723 0-0.504 0.061-0.994 0.175-1.463l4.087-4.054c29.302-10.31 63.090-16.303 98.267-16.384 165.925 0 276.517 141.312 307.237 184.32 3.218 4.57 5.142 10.252 5.142 16.384s-1.925 11.814-5.203 16.475c-28.785 40.612-61.893 75.672-99.275 105.618l-9.208 0.787v-8.192c37.635-30.123 70.072-64.511 97.253-102.885 2.997-4.44 4.157-7.986 4.157-11.803s-1.16-7.364-3.148-10.305c-28.63-42.943-137.174-180.159-296.918-180.159-33.84 0.326-66.181 6.302-96.269 17.025l0.013-0.641zM493.568 324.267h32.768c49.79 7.519 87.517 50.010 87.517 101.313 0 6.173-0.546 12.218-1.593 18.091zM284.672 232.107h-2.048l45.056 51.2-20.48 14.336c-39.362 31.14-73.174 66.904-101.327 106.935-4.29 6.179-6.215 11.861-6.215 17.993s1.925 11.814 5.203 16.475c29.19 41.531 62.998 77.291 101.286 107.647 57.015 46.826 129.016 75.196 207.6 76.577 0.426 0.004 0.574 0.004 0.722 0.004 41.209 0 80.484-8.28 116.253-23.266l10.303-3.358 34.816 34.816h6.144c0.852-0.754 1.387-1.851 1.387-3.072s-0.535-2.318-1.382-3.068l-395.268-393.22h-2.048zM514.048 613.035c-163.84 0-272.384-137.216-301.056-180.224-1.946-2.876-3.106-6.423-3.106-10.24s1.16-7.364 3.148-10.305c31.054-44.336 67.629-82.213 109.293-113.712l13.545-9.103 86.016 86.016-4.096 10.24c-4.859 11.504-7.682 24.879-7.682 38.913 0 56.375 45.556 102.109 101.862 102.399 14.123-0.176 27.472-3.172 39.601-8.448l7.531-3.84 8.192 6.144 65.536 65.536-18.432 6.144c-29.645 12.175-64.011 19.618-100.007 20.474z" />
<glyph unicode="&#xe90b;" glyph-name="pf_icn_notifications" d="M731.136 307.883c0 63.488-81.92 0-81.92 192.512-0.261 59.407-38.233 109.877-91.201 128.726-0.841 1.525-0.773 2.952-0.773 4.394 0 24.986-20.255 45.242-45.242 45.242-23.544 0-42.888-17.985-45.042-40.966-0.132-1.408-0.2-2.834-0.2-4.276s0.068-2.868 0.2-4.276c-53.94-18.967-91.913-69.437-92.174-128.812 0-192.544-81.92-129.056-81.92-192.544 0-28.672 65.536-53.248 155.648-61.44-0.651-3.415-1.024-7.342-1.024-11.357 0-35.063 28.425-63.488 63.488-63.488s63.488 28.425 63.488 63.488c0 4.015-0.373 7.942-1.085 11.75 92.221 7.799 157.757 32.375 157.757 61.047zM512 664.235c0 0 0 0 0 0 14.704 0 26.624-11.92 26.624-26.624 0 0 0 0 0 0h-53.248c0 14.704 11.92 26.624 26.624 26.624 0 0 0 0 0 0zM512 189.099c-0.352-0.010-0.767-0.016-1.183-0.016-24.884 0-45.056 20.172-45.056 45.056 0 3.638 0.431 7.175 1.245 10.563l88.002-0.307c0.751-3.079 1.181-6.613 1.181-10.248 0-24.579-19.681-44.561-44.144-45.047z" />
<glyph unicode="&#xe90c;" glyph-name="pf_icn_upload" d="M438.272 590.507h6.144l59.392 61.44v-288.768c0-5.090 4.126-9.216 9.216-9.216s9.216 4.126 9.216 9.216v288.768l57.344-57.344h6.144c0.912-0.353 1.968-0.557 3.072-0.557 4.832 0 8.749 3.917 8.749 8.749 0 3.728-2.332 6.912-5.617 8.172l-73.788 73.748h-12.288l-73.728-73.728c-4.444-1.364-7.619-5.431-7.619-10.24 0-5.904 4.786-10.691 10.691-10.691 1.096 0 2.153 0.165 3.148 0.471zM686.080 535.211h-118.784c-5.090 0-9.216-4.126-9.216-9.216s4.126-9.216 9.216-9.216h118.784v-327.68h-348.16v329.728h118.784c5.090 0 9.216 4.126 9.216 9.216s-4.126 9.216-9.216 9.216h-118.784c0 0 0 0 0 0-10.18 0-18.432-8.252-18.432-18.432v-329.728c0-10.18 8.252-18.432 18.432-18.432h348.16c10.18 0 18.432 8.252 18.432 18.432v329.728c0 10.18-8.252 18.432-18.432 18.432z" />
<glyph unicode="&#xe90d;" glyph-name="pf_icn_rename" d="M765.952 551.595l-126.976 126.976h-14.336l-329.728-327.68v-4.096l-36.864-163.84c0-4.524 3.668-8.192 8.192-8.192v0l163.84 36.864h4.096l331.776 327.68c1.704 1.508 2.774 3.701 2.774 6.144s-1.069 4.636-2.765 6.136zM421.888 223.915l-143.36-32.768 32.768 143.36h57.344v-45.056c0-4.524 3.668-8.192 8.192-8.192 0 0 0 0 0 0h45.056v-57.344zM440.32 238.251v51.2c0 4.524-3.668 8.192-8.192 8.192h-47.104v47.104c0 4.524-3.668 8.192-8.192 8.192h-53.248l239.616 239.616 114.688-114.688zM690.176 490.155l-114.688 114.688 55.296 55.296 114.688-114.688z" />
<glyph unicode="&#xe90e;" d="M204.8 938.667h614.4c113.108 0 204.8-91.692 204.8-204.8v-614.4c0-113.108-91.692-204.8-204.8-204.8h-614.4c-113.108 0-204.8 91.692-204.8 204.8v614.4c0 113.108 91.692 204.8 204.8 204.8z" />
<glyph unicode="&#xe90f;" d="M368.64 104.107l-220.16 220.16c-6.393 8.45-10.24 19.136-10.24 30.72 0 28.277 22.923 51.2 51.2 51.2 11.584 0 22.27-3.847 30.849-10.333l148.351-148.387 404.48 404.48c8.45 6.393 19.136 10.24 30.72 10.24 28.277 0 51.2-22.923 51.2-51.2 0-11.584-3.847-22.27-10.333-30.849z" />
<glyph unicode="&#xe910;" d="M204.8 913.067h614.4c98.969 0 179.2-80.231 179.2-179.2v-614.4c0-98.969-80.231-179.2-179.2-179.2h-614.4c-98.969 0-179.2 80.231-179.2 179.2v614.4c0 98.969 80.231 179.2 179.2 179.2z" />
<glyph unicode="&#xe911;" d="M819.2 887.467c84.831 0 153.6-68.769 153.6-153.6v-614.4c0-84.831-68.769-153.6-153.6-153.6h-614.4c-84.831 0-153.6 68.769-153.6 153.6v614.4c0 84.831 68.769 153.6 153.6 153.6h614.4zM819.2 938.667h-614.4c-113.108 0-204.8-91.692-204.8-204.8v-614.4c0-113.108 91.692-204.8 204.8-204.8h614.4c113.108 0 204.8 91.692 204.8 204.8v614.4c0 113.108-91.692 204.8-204.8 204.8v0z" />
<glyph unicode="&#xe912;" d="M512-59.733c-268.631 0-486.4 217.769-486.4 486.4s217.769 486.4 486.4 486.4c268.631 0 486.4-217.769 486.4-486.4s-217.769-486.4-486.4-486.4z" />
<glyph unicode="&#xe913;" d="M512 887.467c254.493 0 460.8-206.307 460.8-460.8s-206.307-460.8-460.8-460.8c-254.493 0-460.8 206.307-460.8 460.8s206.307 460.8 460.8 460.8zM512 938.667v0c-282.77 0-512-229.23-512-512v0c0-282.77 229.23-512 512-512v0c282.77 0 512 229.23 512 512v0c0 282.77-229.23 512-512 512v0z" />
<glyph unicode="&#xe914;" d="M512 682.667c141.385 0 256-114.615 256-256s-114.615-256-256-256c-141.385 0-256 114.615-256 256s114.615 256 256 256z" />
<glyph unicode="&#xe915;" d="M512-59.733c-268.631 0-486.4 217.769-486.4 486.4s217.769 486.4 486.4 486.4c268.631 0 486.4-217.769 486.4-486.4s-217.769-486.4-486.4-486.4z" />
<glyph unicode="&#xe916;" d="M512 887.467c254.493 0 460.8-206.307 460.8-460.8s-206.307-460.8-460.8-460.8c-254.493 0-460.8 206.307-460.8 460.8s206.307 460.8 460.8 460.8zM512 938.667c-282.77 0-512-229.23-512-512v0c0-282.77 229.23-512 512-512s512 229.23 512 512v0c0 282.77-229.23 512-512 512v0z" />
</font>
</defs>
</svg>
