<svg id="Layer_1" data-name="Layer 1" xmlns="http://www.w3.org/2000/svg" viewBox="0 0 20 20"><defs><style>.cls-1{fill:#fff;}.cls-2{fill:#009edc;}</style></defs><title>pf</title><g id="Base"><path class="cls-1" d="M10,19.5A9.5,9.5,0,1,1,19.5,10,9.51,9.51,0,0,1,10,19.5Z"/><path class="cls-2" d="M10,1a9,9,0,1,1-9,9,9,9,0,0,1,9-9m0-1h0A10,10,0,0,0,0,10H0A10,10,0,0,0,10,20h0A10,10,0,0,0,20,10h0A10,10,0,0,0,10,0h0Z"/></g><g id="Base-2" data-name="Base"><rect class="cls-2" x="5" y="5" width="10" height="10" rx="5" ry="5"/></g></svg>