<svg id="Layer_1" data-name="Layer 1" xmlns="http://www.w3.org/2000/svg" viewBox="0 0 50 50"><defs><style>.cls-1{opacity:0.5;}.cls-2{fill:#fff;}</style></defs><title>pf</title><g class="cls-1"><path class="cls-2" d="M35.71,30.8c0-3.12-4,0-4-9.37a6.69,6.69,0,0,0-4.5-6.32,2.23,2.23,0,1,0-4.43-.38,2.24,2.24,0,0,0,0,.38,6.69,6.69,0,0,0-4.5,6.32c0,9.38-4,6.25-4,9.38,0,1.42,3.23,2.61,7.65,3a3.13,3.13,0,1,0,6.13,0C32.49,33.41,35.71,32.22,35.71,30.8ZM25,13.39a1.34,1.34,0,0,1,1.34,1.34,1.18,1.18,0,0,1,0,.13,6.7,6.7,0,0,0-2.65,0,1.18,1.18,0,0,1,0-.13A1.34,1.34,0,0,1,25,13.39Zm0,23.21a2.21,2.21,0,0,1-2.17-2.74c0.7,0,1.43.06,2.17,0.06s1.47,0,2.17-.06A2.21,2.21,0,0,1,25,36.61Z"/></g></svg>