<svg id="Layer_1" data-name="Layer 1" xmlns="http://www.w3.org/2000/svg" viewBox="0 0 50 50"><defs><style>.cls-1{fill:#fff;opacity:0.5;}</style></defs><title>pf</title><path class="cls-1" d="M11.9,15.56a0.56,0.56,0,0,0,.57.56H16L19.33,30.6a2.23,2.23,0,0,0-1.57,2.12A2.27,2.27,0,0,0,20,35a2.24,2.24,0,0,0,2.26-2.24A2.16,2.16,0,0,0,22,31.68H30.5a2.27,2.27,0,1,0,2-1.11h-12L20.2,29.46H34.15A0.64,0.64,0,0,0,34.68,29l3.39-10.25A0.6,0.6,0,0,0,37.54,18h-20L17,15.37A0.51,0.51,0,0,0,16.42,15h-4A0.56,0.56,0,0,0,11.9,15.56Zm20.56,16a1.13,1.13,0,1,1-1.13,1.13A1.13,1.13,0,0,1,32.45,31.58ZM20,31.58a1.13,1.13,0,1,1-1.13,1.13A1.13,1.13,0,0,1,20,31.58Z"/></svg>