<svg id="Layer_1" data-name="Layer 1" xmlns="http://www.w3.org/2000/svg" viewBox="0 0 50 50"><defs><style>.cls-1{fill:#6d6e71;}</style></defs><title>pf</title><g id="_830-pencil_2x.png" data-name="830-pencil@2x.png"><path class="cls-1" d="M37.37,18.88l-6.25-6.25a0.45,0.45,0,0,0-.63,0L14.42,28.7h0a0.46,0.46,0,0,0-.12.21h0l-1.79,8h0a0.43,0.43,0,0,0,0,.1,0.45,0.45,0,0,0,.45.45l0.1,0h0l8-1.79h0a0.44,0.44,0,0,0,.22-0.11L37.37,19.51A0.45,0.45,0,0,0,37.37,18.88Zm-16.83,16-7,1.56,1.56-7h2.77V31.7a0.45,0.45,0,0,0,.45.45h2.23v2.77Zm0.89-.72V31.7A0.45,0.45,0,0,0,21,31.25H18.75V29a0.45,0.45,0,0,0-.45-0.45H15.81L27.46,16.93l5.62,5.62ZM33.71,21.91l-5.62-5.62,2.72-2.72,5.62,5.62Z"/></g></svg>