<svg id="Layer_1" data-name="Layer 1" xmlns="http://www.w3.org/2000/svg" viewBox="0 0 50 50"><defs><style>.cls-1{fill:#6d6e71;}</style></defs><title>pf</title><path class="cls-1" d="M20.44,33.7a0.26,0.26,0,0,0-.28.33,0.26,0.26,0,0,0,.18.19,15,15,0,0,0,4.75.78c8.08,0,13.51-6.9,15-9a1.42,1.42,0,0,0,0-1.61,25.08,25.08,0,0,0-4.9-5.21A0.27,0.27,0,0,0,35,19.11a0.26,0.26,0,0,0-.19.08,0.26,0.26,0,0,0-.08.2,0.27,0.27,0,0,0,.1.2,24.52,24.52,0,0,1,4.79,5.1,0.87,0.87,0,0,1,0,1c-1.43,2.06-6.71,8.79-14.54,8.79a14.41,14.41,0,0,1-4.59-.76H20.44Z"/><path class="cls-1" d="M24.14,30a5,5,0,0,0,.88.08,5.23,5.23,0,0,0,.69,0,5,5,0,0,0,4.24-5.84Z"/><path class="cls-1" d="M13.91,34.53a0.18,0.18,0,0,1-.13-0.3L16,32l-1-.73a24.75,24.75,0,0,1-5-5.32,1.42,1.42,0,0,1,0-1.61,24.8,24.8,0,0,1,5-5.31,16.36,16.36,0,0,1,10.11-3.7,14.66,14.66,0,0,1,5.6,1.13l0.57,0.24,1.68-1.68A0.17,0.17,0,0,1,33.07,15a0.18,0.18,0,0,1,.13.05,0.18,0.18,0,0,1,0,.25L14,34.47A0.17,0.17,0,0,1,13.91,34.53ZM25.09,15.9c-8,0-13.28,6.72-14.71,8.78a0.87,0.87,0,0,0,0,1,24.38,24.38,0,0,0,5.43,5.56l0.55,0.4,4.2-4.21L20.4,27A5,5,0,0,1,25,20.11a5,5,0,0,1,1.88.37l0.39,0.16,0.35-.28,3.24-3.24-0.94-.34A14.08,14.08,0,0,0,25.09,15.9Z"/></svg>