<svg id="Layer_1" data-name="Layer 1" xmlns="http://www.w3.org/2000/svg" viewBox="0 0 50 50"><defs><style>.cls-1{fill:#b6b6b6;}</style></defs><title>pf</title><g id="_702-share_2x.png" data-name="702-share@2x.png"><path class="cls-1" d="M21.43,17a0.45,0.45,0,0,0,.32-0.13L24.55,14v14.1a0.45,0.45,0,0,0,.89,0V14l2.81,2.81a0.45,0.45,0,1,0,.63-0.63l-3.57-3.57a0.45,0.45,0,0,0-.63,0L21.11,16.2A0.45,0.45,0,0,0,21.43,17Zm12.05,2.68h-5.8a0.45,0.45,0,1,0,0,.89h5.8V36.61h-17V20.54h5.8a0.45,0.45,0,1,0,0-.89h-5.8a0.89,0.89,0,0,0-.89.89V36.61a0.89,0.89,0,0,0,.89.89h17a0.89,0.89,0,0,0,.89-0.89V20.54A0.89,0.89,0,0,0,33.48,19.64Z"/></g></svg>