<svg id="Layer_1" data-name="Layer 1" xmlns="http://www.w3.org/2000/svg" viewBox="0 0 50 50"><defs><style>.cls-1{fill:#009edc;}</style></defs><title>pf</title><g id="_711-trash_2x.png" data-name="711-trash@2x.png"><path class="cls-1" d="M21,17.86a0.45,0.45,0,0,0-.42.47L21.43,34.4a0.45,0.45,0,1,0,.89-0.05L21.43,18.28A0.45,0.45,0,0,0,21,17.86Zm7.61,0.45-0.89,16a0.45,0.45,0,0,0,.89.05l0.89-16A0.45,0.45,0,1,0,28.57,18.31ZM25,17.86a0.45,0.45,0,0,0-.45.45V34.38a0.45,0.45,0,0,0,.89,0V18.3A0.45,0.45,0,0,0,25,17.86Zm8.93-2.68H29V14.29a1.79,1.79,0,0,0-1.79-1.79H22.77A1.79,1.79,0,0,0,21,14.29v0.89H16.07a0.45,0.45,0,0,0,0,.89h0.45L18.3,35.71a1.79,1.79,0,0,0,1.79,1.79h9.82a1.79,1.79,0,0,0,1.79-1.79l1.79-19.64h0.45A0.45,0.45,0,0,0,33.93,15.18Zm-12.05-.89a0.89,0.89,0,0,1,.89-0.89h4.46a0.89,0.89,0,0,1,.89.89v0.89H21.88V14.29ZM30.8,35.71a0.89,0.89,0,0,1-.89.89H20.09a0.89,0.89,0,0,1-.89-0.89L17.41,16.07H32.59Z"/></g></svg>