<svg id="Layer_1" data-name="Layer 1" xmlns="http://www.w3.org/2000/svg" viewBox="0 0 25 25"><defs><style>.cls-1{fill:#6d6e71;}</style></defs><title>pf</title><g id="_724-info_2x.png" data-name="724-info@2x.png"><path class="cls-1" d="M14.09,17.56a0.64,0.64,0,0,1-.29-0.27,0.9,0.9,0,0,1-.1-0.45v-6l-0.1-.11L10.27,11v0.55a2.21,2.21,0,0,1,.45.11,1.38,1.38,0,0,1,.37.17,1,1,0,0,1,.27.32,1,1,0,0,1,.11.46v4.36a1,1,0,0,1-.09.45,0.57,0.57,0,0,1-.31.26,1.09,1.09,0,0,1-.29.07l-0.35,0V18.3h4.29V17.76a1.84,1.84,0,0,1-.34-0.08ZM12.4,9.45a1.28,1.28,0,0,0,.94-0.4,1.33,1.33,0,0,0,.4-1,1.35,1.35,0,0,0-.39-1,1.31,1.31,0,0,0-1.89,0,1.39,1.39,0,0,0,0,1.95A1.29,1.29,0,0,0,12.4,9.45ZM12.5,0A12.5,12.5,0,1,0,25,12.5,12.5,12.5,0,0,0,12.5,0Zm0,24.11A11.61,11.61,0,1,1,24.11,12.5,11.61,11.61,0,0,1,12.5,24.11Z"/></g></svg>