<svg id="Layer_1" data-name="Layer 1" xmlns="http://www.w3.org/2000/svg" width="20" height="20" viewBox="0 0 20 20">
  <defs>
    <style>
      .cls-1 {
        fill: #fff;
      }

      .cls-2 {
        fill: #868686;
      }
    </style>
  </defs>
  <title>pf_btn_radio</title>
  <g id="Base">
    <path class="cls-1" d="M97.2,161.1a9.5,9.5,0,1,1,9.5-9.5A9.5,9.5,0,0,1,97.2,161.1Z" transform="translate(-87.2 -141.6)"/>
    <path class="cls-2" d="M97.2,142.6a9,9,0,1,1-9,9,9,9,0,0,1,9-9m0-1a10,10,0,0,0-10,10h0a10,10,0,0,0,20,0h0a10,10,0,0,0-10-10h0Z" transform="translate(-87.2 -141.6)"/>
  </g>
</svg>
