<svg id="Layer_1" data-name="Layer 1" xmlns="http://www.w3.org/2000/svg" width="20" height="20" viewBox="0 0 20 20">
  <defs>
    <style>
      .cls-1 {
        fill: #fff;
      }

      .cls-2 {
        fill: #868686;
      }
    </style>
  </defs>
  <title>pf_btn_checkbox</title>
  <g id="Base">
    <rect class="cls-1" x="0.5" y="0.5" width="19" height="19" rx="3.5" ry="3.5"/>
    <path class="cls-2" d="M73.2,142.6a3,3,0,0,1,3,3v12a3,3,0,0,1-3,3h-12a3,3,0,0,1-3-3v-12a3,3,0,0,1,3-3h12m0-1h-12a4,4,0,0,0-4,4v12a4,4,0,0,0,4,4h12a4,4,0,0,0,4-4v-12a4,4,0,0,0-4-4h0Z" transform="translate(-57.2 -141.6)"/>
  </g>
</svg>
