<svg id="Layer_1" data-name="Layer 1" xmlns="http://www.w3.org/2000/svg" width="25" height="25" viewBox="0 0 25 25">
  <defs>
    <style>
      .cls-1 {
        fill: #009edc;
      }
    </style>
  </defs>
  <title>pf</title>
  <g id="_724-info_2x.png" data-name="724-info@2x.png">
    <path class="cls-1" d="M14.1,17.6l-0.3-.3a0.9,0.9,0,0,1-.1-0.4v-6H13.6l-3.3.2v0.5h0.5l0.4,0.2,0.3,0.3a0.9,0.9,0,0,1,.1.5v4.4a1,1,0,0,1-.1.4l-0.3.3H10.4v0.5h4.3V17.8H14.1ZM12.4,9.5a1.3,1.3,0,0,0,.9-0.4,1.3,1.3,0,0,0,.4-1,1.3,1.3,0,0,0-.4-1,1.3,1.3,0,0,0-1.9,0,1.4,1.4,0,0,0,0,1.9A1.3,1.3,0,0,0,12.4,9.5ZM12.5,0A12.5,12.5,0,1,0,25,12.5,12.5,12.5,0,0,0,12.5,0Zm0,24.1A11.6,11.6,0,1,1,24.1,12.5,11.6,11.6,0,0,1,12.5,24.1Z"/>
  </g>
</svg>
