<svg id="Layer_1" data-name="Layer 1" xmlns="http://www.w3.org/2000/svg" width="50" height="50" viewBox="0 0 50 50">
  <defs>
    <style>
      .cls-1 {
        fill: #009edc;
      }
    </style>
  </defs>
  <title>pf</title>
  <g id="_702-share_2x.png" data-name="702-share@2x.png">
    <path class="cls-1" d="M21.4,17h0.3L24.6,14V28.1a0.4,0.4,0,0,0,.9,0V14l2.8,2.8h0.3a0.4,0.4,0,0,0,.3-0.8l-3.6-3.6H24.7l-3.6,3.6A0.4,0.4,0,0,0,21.4,17Zm12.1,2.7H27.7a0.4,0.4,0,1,0,0,.9h5.8V36.6h-17V20.5h5.8a0.4,0.4,0,1,0,0-.9H16.5a0.9,0.9,0,0,0-.9.9V36.6a0.9,0.9,0,0,0,.9.9h17a0.9,0.9,0,0,0,.9-0.9V20.5A0.9,0.9,0,0,0,33.5,19.6Z"/>
  </g>
</svg>
