<svg id="Layer_1" data-name="Layer 1" xmlns="http://www.w3.org/2000/svg" width="18.8" height="25" viewBox="0 0 18.8 25">
  <defs>
    <style>
      .cls-1 {
        fill: #009edc;
      }
    </style>
  </defs>
  <title>pf_icn_delete</title>
  <g id="_711-trash_2x.png" data-name="711-trash@2x.png">
    <path class="cls-1" d="M201,77.9a0.4,0.4,0,0,0-.4.5l0.9,16.1a0.4,0.4,0,1,0,.9-0.1l-0.9-16.1A0.4,0.4,0,0,0,201,77.9Zm7.6,0.4-0.9,16a0.4,0.4,0,0,0,.9.1l0.9-16A0.4,0.4,0,1,0,208.6,78.3Zm-3.6-.4a0.4,0.4,0,0,0-.4.4V94.4a0.4,0.4,0,1,0,.9,0V78.3A0.4,0.4,0,0,0,205,77.9Zm8.9-2.7H209V74.3a1.8,1.8,0,0,0-1.8-1.8h-4.5a1.8,1.8,0,0,0-1.8,1.8v0.9h-4.9a0.4,0.4,0,0,0,0,.9h0.4l1.8,19.6a1.8,1.8,0,0,0,1.8,1.8h9.8a1.8,1.8,0,0,0,1.8-1.8l1.8-19.6h0.4A0.4,0.4,0,0,0,213.9,75.2Zm-12.1-.9a0.9,0.9,0,0,1,.9-0.9h4.5a0.9,0.9,0,0,1,.9.9v0.9h-6.2V74.3Zm8.9,21.4a0.9,0.9,0,0,1-.9.9h-9.8a0.9,0.9,0,0,1-.9-0.9l-1.8-19.6h15.2Z" transform="translate(-195.6 -72.5)"/>
  </g>
</svg>
