<svg id="Layer_1" data-name="Layer 1" xmlns="http://www.w3.org/2000/svg" width="50" height="50" viewBox="0 0 50 50">
  <defs>
    <style>
      .cls-1 {
        fill: #009edc;
      }
    </style>
  </defs>
  <title>pf</title>
  <g>
    <path class="cls-1" d="M20.4,33.7H20.2a0.3,0.3,0,0,0-.1.3l0.2,0.2a15,15,0,0,0,4.8.8c8.1,0,13.5-6.9,15-9a1.4,1.4,0,0,0,0-1.6,25.1,25.1,0,0,0-4.9-5.2H34.8v0.4a24.5,24.5,0,0,1,4.8,5.1,0.9,0.9,0,0,1,0,1c-1.4,2.1-6.7,8.8-14.5,8.8a14.4,14.4,0,0,1-4.6-.8H20.4Z"/>
    <path class="cls-1" d="M24.1,30h1.6a5,5,0,0,0,4.2-5.8Z"/>
    <path class="cls-1" d="M13.9,34.5H13.8L16,32l-1-.7a24.7,24.7,0,0,1-5-5.3,1.4,1.4,0,0,1,0-1.6,24.8,24.8,0,0,1,5-5.3,16.4,16.4,0,0,1,10.1-3.7,14.7,14.7,0,0,1,5.6,1.1l0.6,0.2,1.7-1.7h0.3a0.2,0.2,0,0,1,0,.3L14,34.5H13.9ZM25.1,15.9c-8,0-13.3,6.7-14.7,8.8a0.9,0.9,0,0,0,0,1,24.4,24.4,0,0,0,5.4,5.6l0.6,0.4,4.2-4.2L20.4,27A5,5,0,0,1,25,20.1a5,5,0,0,1,1.9.4l0.4,0.2,0.4-.3,3.2-3.2-0.9-.3A14.1,14.1,0,0,0,25.1,15.9Z"/>
  </g>
</svg>
