<svg id="Layer_1" data-name="Layer 1" xmlns="http://www.w3.org/2000/svg" width="50" height="50" viewBox="0 0 50 50">
  <defs>
    <style>
      .cls-1 {
        fill: #009edc;
      }
    </style>
  </defs>
  <title>pf</title>
  <path class="cls-1" d="M11.9,15.6a0.6,0.6,0,0,0,.6.6H16l3.4,14.5a2.2,2.2,0,0,0-1.6,2.1A2.3,2.3,0,0,0,20,35a2.2,2.2,0,0,0,2.3-2.2,2.2,2.2,0,0,0-.3-1.1h8.5a2.3,2.3,0,1,0,2-1.1h-12l-0.3-1.1H34.1a0.6,0.6,0,0,0,.5-0.5l3.4-10.2a0.6,0.6,0,0,0-.5-0.8h-20L17,15.4a0.5,0.5,0,0,0-.6-0.4h-4A0.6,0.6,0,0,0,11.9,15.6Zm20.6,16a1.1,1.1,0,1,1-1.1,1.1A1.1,1.1,0,0,1,32.5,31.6ZM20,31.6a1.1,1.1,0,1,1-1.1,1.1A1.1,1.1,0,0,1,20,31.6Z"/>
</svg>
