<svg id="Layer_1" data-name="Layer 1" xmlns="http://www.w3.org/2000/svg" width="50" height="50" viewBox="0 0 50 50">
  <defs>
    <style>
      .cls-1 {
        fill: #009edc;
      }
    </style>
  </defs>
  <title>pf</title>
  <g id="_703-download_2x.png" data-name="703-download@2x.png">
    <path class="cls-1" d="M21.4,24.1a0.4,0.4,0,0,0-.3.8l3.6,3.6h0.6l3.6-3.6a0.4,0.4,0,0,0-.3-0.8H28.3L25.4,27V12.9a0.4,0.4,0,1,0-.9,0V27l-2.8-2.8H21.4Zm12.1-4.5H27.7a0.4,0.4,0,1,0,0,.9h5.8V36.6h-17V20.5h5.8a0.4,0.4,0,1,0,0-.9H16.5a0.9,0.9,0,0,0-.9.9V36.6a0.9,0.9,0,0,0,.9.9h17a0.9,0.9,0,0,0,.9-0.9V20.5A0.9,0.9,0,0,0,33.5,19.6Z"/>
  </g>
</svg>
