<svg id="Layer_1" data-name="Layer 1" xmlns="http://www.w3.org/2000/svg" width="50" height="50" viewBox="0 0 50 50">
  <defs>
    <style>
      .cls-1 {
        fill: #009edc;
      }
    </style>
  </defs>
  <title>pf</title>
  <g id="_830-pencil_2x.png" data-name="830-pencil@2x.png">
    <path class="cls-1" d="M37.4,18.9l-6.2-6.2H30.5L14.4,28.7h0v0.2h0l-1.8,8h0a0.4,0.4,0,0,0,.4.4H13l8-1.8h0.2L37.4,19.5A0.4,0.4,0,0,0,37.4,18.9Zm-16.8,16-7,1.6,1.6-7h2.8v2.2a0.4,0.4,0,0,0,.4.4h2.2v2.8Zm0.9-.7V31.7a0.4,0.4,0,0,0-.4-0.4H18.8V29a0.4,0.4,0,0,0-.4-0.4H15.8L27.5,16.9l5.6,5.6ZM33.7,21.9l-5.6-5.6,2.7-2.7,5.6,5.6Z"/>
  </g>
</svg>
