<?xml version="1.0"?>
<!--Icons from directory ""-->
<svg xmlns="http://www.w3.org/2000/svg" width="50" height="1500" viewBox="0 0 50 1500"><svg id="pf_btn_next_arrow" viewBox="0 0 30 30" data-name="Layer 1" width="50" height="50" y="0"><defs><style>.cls-1{fill:#e6e7e8;}.cls-2{fill:#58595b;}</style></defs><title>pf</title><rect width="30" class="cls-1" height="30"/><g id="pf_btn_next_arrow-_763-arrow-up_2x.png" data-name="763-arrow-up@2x.png"><path class="cls-2" d="m18.75 15a0.27 0.27 0 0 0 -0.08 -0.19l-7-7.23a0.27 0.27 0 1 0 -0.38 0.37l6.79 7-6.79 7a0.27 0.27 0 1 0 0.38 0.37l7-7.23a0.27 0.27 0 0 0 0.08 -0.09z"/></g></svg><svg id="pf_btn_prv_arrow" viewBox="0 0 30 30" data-name="Layer 1" width="50" height="50" y="50"><defs><style>.cls-1{fill:#e6e7e8;}.cls-2{fill:#58595b;}</style></defs><title>pf</title><rect width="30" class="cls-1" height="30"/><g id="pf_btn_prv_arrow-_763-arrow-up_2x.png" data-name="763-arrow-up@2x.png"><path class="cls-2" d="m18.68 22l-6.79-7 6.79-7a0.27 0.27 0 1 0 -0.38 -0.37l-7 7.23a0.26 0.26 0 0 0 0 0.37l7 7.23a0.27 0.27 0 1 0 0.37 -0.46z"/></g></svg><svg id="pf_btn_radio" viewBox="0 0 20 20" data-name="Layer 1" width="50" height="50" y="100"><defs><style>.cls-1{fill:#fff;}.cls-2{fill:#868686;}</style></defs><title>pf</title><g id="pf_btn_radio-Base"><path class="cls-1" d="m10 19.5a9.5 9.5 0 1 1 9.5 -9.5 9.51 9.51 0 0 1 -9.5 9.5z"/><path class="cls-2" d="m10 1a9 9 0 1 1 -9 9 9 9 0 0 1 9 -9m0-1a10 10 0 0 0 -10 10 10 10 0 0 0 20 0 10 10 0 0 0 -10 -10z"/></g></svg><svg id="pf_btn_radio_hover" viewBox="0 0 20 20" data-name="Layer 1" width="50" height="50" y="150"><defs><style>.cls-1{fill:#fff;}.cls-2{fill:#009edc;}</style></defs><title>pf</title><g id="pf_btn_radio_hover-Base"><path class="cls-1" d="m10 19.5a9.5 9.5 0 1 1 9.5 -9.5 9.51 9.51 0 0 1 -9.5 9.5z"/><path class="cls-2" d="m10 1a9 9 0 1 1 -9 9 9 9 0 0 1 9 -9m0-1a10 10 0 0 0 -10 10 10 10 0 0 0 10 10 10 10 0 0 0 10 -10 10 10 0 0 0 -10 -10z"/></g></svg><svg id="pf_btn_radio_selected" viewBox="0 0 20 20" data-name="Layer 1" width="50" height="50" y="200"><defs><style>.cls-1{fill:#fff;}.cls-2{fill:#009edc;}</style></defs><title>pf</title><g id="pf_btn_radio_selected-Base"><path class="cls-1" d="m10 19.5a9.5 9.5 0 1 1 9.5 -9.5 9.51 9.51 0 0 1 -9.5 9.5z"/><path class="cls-2" d="m10 1a9 9 0 1 1 -9 9 9 9 0 0 1 9 -9m0-1a10 10 0 0 0 -10 10 10 10 0 0 0 10 10 10 10 0 0 0 10 -10 10 10 0 0 0 -10 -10z"/></g><g id="pf_btn_radio_selected-Base-2" data-name="Base"><rect rx="5" ry="5" height="10" width="10" y="5" x="5" class="cls-2"/></g></svg><svg id="pf_btn_remove" viewBox="0 0 15 15" data-name="Layer 1" width="50" height="50" y="250"><defs><style>.cls-1{fill:#868686;}</style></defs><title>pf</title><path class="cls-1" d="m8.63 7.5l6.14-6.14a0.8 0.8 0 1 0 -1.13 -1.13l-6.14 6.14-6.14-6.14a0.8 0.8 0 0 0 -1.13 1.13l6.14 6.14-6.14 6.14a0.8 0.8 0 1 0 1.13 1.13l6.14-6.14 6.14 6.14a0.8 0.8 0 0 0 1.13 -1.13z"/></svg><svg id="pf_icn_cart" viewBox="0 0 50 50" data-name="Layer 1" width="50" height="50" y="300"><defs><style>.cls-1{fill:#fff;opacity:0.5;}</style></defs><title>pf</title><path class="cls-1" d="m11.9 15.56a0.56 0.56 0 0 0 0.57 0.56h3.53l3.33 14.48a2.23 2.23 0 0 0 -1.57 2.12 2.27 2.27 0 0 0 2.24 2.28 2.24 2.24 0 0 0 2.26 -2.24 2.16 2.16 0 0 0 -0.26 -1.08h8.5a2.27 2.27 0 1 0 2 -1.11h-12l-0.3-1.11h13.95a0.64 0.64 0 0 0 0.53 -0.46l3.39-10.25a0.6 0.6 0 0 0 -0.53 -0.75h-20l-0.54-2.63a0.51 0.51 0 0 0 -0.58 -0.37h-4a0.56 0.56 0 0 0 -0.52 0.56zm20.56 16a1.13 1.13 0 1 1 -1.13 1.13 1.13 1.13 0 0 1 1.12 -1.11zm-12.46 0.02a1.13 1.13 0 1 1 -1.13 1.13 1.13 1.13 0 0 1 1.13 -1.13z"/></svg><svg id="pf_icn_cart_hover" viewBox="0 0 50 50" data-name="Layer 1" width="50" height="50" y="350"><defs><style>.cls-1{fill:#fff;}</style></defs><title>pf</title><path class="cls-1" d="m11.9 15.56a0.56 0.56 0 0 0 0.57 0.56h3.53l3.33 14.48a2.23 2.23 0 0 0 -1.57 2.12 2.27 2.27 0 0 0 2.24 2.28 2.24 2.24 0 0 0 2.26 -2.24 2.16 2.16 0 0 0 -0.26 -1.08h8.5a2.27 2.27 0 1 0 2 -1.11h-12l-0.3-1.11h13.95a0.64 0.64 0 0 0 0.53 -0.46l3.39-10.25a0.6 0.6 0 0 0 -0.53 -0.75h-20l-0.54-2.63a0.51 0.51 0 0 0 -0.58 -0.37h-4a0.56 0.56 0 0 0 -0.52 0.56zm20.56 16a1.13 1.13 0 1 1 -1.13 1.13 1.13 1.13 0 0 1 1.12 -1.11zm-12.46 0.02a1.13 1.13 0 1 1 -1.13 1.13 1.13 1.13 0 0 1 1.13 -1.13z"/></svg><svg id="pf_icn_collapse" viewBox="0 0 13 13" data-name="Layer 1" width="50" height="50" y="400"><defs><style>.cls-1{fill:#009edc;}</style></defs><title>pf</title><path class="cls-1" d="m13 7h-13v-1h13v1z"/></svg><svg id="pf_icn_delete" viewBox="0 0 50 50" data-name="Layer 1" width="50" height="50" y="450"><defs><style>.cls-1{fill:#6d6e71;}</style></defs><title>pf</title><g id="pf_icn_delete-_711-trash_2x.png" data-name="711-trash@2x.png"><path class="cls-1" d="m21 17.86a0.45 0.45 0 0 0 -0.42 0.47l0.85 16.07a0.45 0.45 0 1 0 0.89 -0.05l-0.89-16.07a0.45 0.45 0 0 0 -0.43 -0.42zm13-2.68h-5v-0.89a1.79 1.79 0 0 0 -1.79 -1.79h-4.44a1.79 1.79 0 0 0 -1.77 1.79v0.89h-4.93a0.45 0.45 0 0 0 0 0.89h0.45l1.78 19.64a1.79 1.79 0 0 0 1.79 1.79h9.82a1.79 1.79 0 0 0 1.79 -1.79l1.79-19.64h0.45a0.45 0.45 0 0 0 -0.01 -0.89zm-12.05-0.89a0.89 0.89 0 0 1 0.89 -0.89h4.46a0.89 0.89 0 0 1 0.89 0.89v0.89h-6.31v-0.89zm8.85 21.42a0.89 0.89 0 0 1 -0.89 0.89h-9.82a0.89 0.89 0 0 1 -0.89 -0.89l-1.79-19.64h15.18zm-5.8-17.85a0.45 0.45 0 0 0 -0.45 0.45v16.07a0.45 0.45 0 0 0 0.89 0v-16.08a0.45 0.45 0 0 0 -0.44 -0.44zm3.57 0.45-0.89 16a0.45 0.45 0 0 0 0.89 0.05l0.89-16a0.45 0.45 0 1 0 -0.89 -0.05z"/></g></svg><svg id="pf_icn_delete_hover" viewBox="0 0 50 50" data-name="Layer 1" width="50" height="50" y="500"><defs><style>.cls-1{fill:#009edc;}</style></defs><title>pf</title><g id="pf_icn_delete_hover-_711-trash_2x.png" data-name="711-trash@2x.png"><path class="cls-1" d="m21 17.86a0.45 0.45 0 0 0 -0.42 0.47l0.85 16.07a0.45 0.45 0 1 0 0.89 -0.05l-0.89-16.07a0.45 0.45 0 0 0 -0.43 -0.42zm7.61 0.45-0.89 16a0.45 0.45 0 0 0 0.89 0.05l0.89-16a0.45 0.45 0 1 0 -0.93 -0.05zm-3.61-0.45a0.45 0.45 0 0 0 -0.45 0.45v16.07a0.45 0.45 0 0 0 0.89 0v-16.08a0.45 0.45 0 0 0 -0.44 -0.44zm8.93-2.68h-4.93v-0.89a1.79 1.79 0 0 0 -1.79 -1.79h-4.44a1.79 1.79 0 0 0 -1.77 1.79v0.89h-4.93a0.45 0.45 0 0 0 0 0.89h0.45l1.78 19.64a1.79 1.79 0 0 0 1.79 1.79h9.82a1.79 1.79 0 0 0 1.79 -1.79l1.79-19.64h0.45a0.45 0.45 0 0 0 -0.01 -0.89zm-12.05-0.89a0.89 0.89 0 0 1 0.89 -0.89h4.46a0.89 0.89 0 0 1 0.89 0.89v0.89h-6.24v-0.89zm8.92 21.42a0.89 0.89 0 0 1 -0.89 0.89h-9.82a0.89 0.89 0 0 1 -0.89 -0.89l-1.79-19.64h15.18z"/></g></svg><svg id="pf_icn_download" viewBox="0 0 50 50" data-name="Layer 1" width="50" height="50" y="550"><defs><style>.cls-1{fill:#6d6e71;}</style></defs><title>pf</title><g id="pf_icn_download-_703-download_2x.png" data-name="703-download@2x.png"><path class="cls-1" d="m21.43 24.11a0.45 0.45 0 0 0 -0.32 0.76l3.57 3.57a0.45 0.45 0 0 0 0.63 0l3.57-3.57a0.45 0.45 0 1 0 -0.63 -0.63l-2.8 2.76v-14.05a0.45 0.45 0 1 0 -0.89 0v14.05l-2.81-2.81a0.45 0.45 0 0 0 -0.32 -0.08zm12.05-4.46h-5.8a0.45 0.45 0 1 0 0 0.89h5.8v16.07h-17v-16.07h5.8a0.45 0.45 0 1 0 0 -0.89h-5.8a0.89 0.89 0 0 0 -0.89 0.89v16.07a0.89 0.89 0 0 0 0.89 0.89h17a0.89 0.89 0 0 0 0.89 -0.89v-16.07a0.89 0.89 0 0 0 -0.89 -0.9z"/></g></svg><svg id="pf_icn_download_hover" viewBox="0 0 50 50" data-name="Layer 1" width="50" height="50" y="600"><defs><style>.cls-1{fill:#009edc;}</style></defs><title>pf</title><g id="pf_icn_download_hover-_703-download_2x.png" data-name="703-download@2x.png"><path class="cls-1" d="m21.43 24.11a0.45 0.45 0 0 0 -0.32 0.76l3.57 3.57a0.45 0.45 0 0 0 0.63 0l3.57-3.57a0.45 0.45 0 1 0 -0.63 -0.63l-2.8 2.76v-14.05a0.45 0.45 0 1 0 -0.89 0v14.05l-2.81-2.81a0.45 0.45 0 0 0 -0.32 -0.08zm12.05-4.46h-5.8a0.45 0.45 0 1 0 0 0.89h5.8v16.07h-17v-16.07h5.8a0.45 0.45 0 1 0 0 -0.89h-5.8a0.89 0.89 0 0 0 -0.89 0.89v16.07a0.89 0.89 0 0 0 0.89 0.89h17a0.89 0.89 0 0 0 0.89 -0.89v-16.07a0.89 0.89 0 0 0 -0.89 -0.9z"/></g></svg><svg id="pf_icn_expand" viewBox="0 0 13 13" data-name="Layer 1" width="50" height="50" y="650"><defs><style>.cls-1{fill:#009edc;}</style></defs><title>pf</title><polygon points="12.99 6 7 6 7 0.01 6 0.01 6 6 0.01 6 0.01 7 6 7 6 12.99 7 12.99 7 7 12.99 7" class="cls-1"/></svg><svg id="pf_icn_hide_files" viewBox="0 0 50 50" data-name="Layer 1" width="50" height="50" y="700"><defs><style>.cls-1{fill:#6d6e71;}</style></defs><title>pf</title><path class="cls-1" d="m20.44 33.7a0.26 0.26 0 0 0 -0.28 0.33 0.26 0.26 0 0 0 0.18 0.19 15 15 0 0 0 4.75 0.78c8.08 0 13.51-6.9 15-9a1.42 1.42 0 0 0 0 -1.61 25.08 25.08 0 0 0 -4.9 -5.21 0.27 0.27 0 0 0 -0.19 -0.07 0.26 0.26 0 0 0 -0.19 0.08 0.26 0.26 0 0 0 -0.08 0.2 0.27 0.27 0 0 0 0.1 0.2 24.52 24.52 0 0 1 4.79 5.1 0.87 0.87 0 0 1 0 1c-1.43 2.06-6.71 8.79-14.54 8.79a14.41 14.41 0 0 1 -4.59 -0.76h-0.05z"/><path class="cls-1" d="m24.14 30a5 5 0 0 0 0.88 0.08 5.23 5.23 0 0 0 0.69 0 5 5 0 0 0 4.24 -5.84z"/><path class="cls-1" d="m13.91 34.53a0.18 0.18 0 0 1 -0.13 -0.3l2.22-2.23-1-0.73a24.75 24.75 0 0 1 -5 -5.32 1.42 1.42 0 0 1 0 -1.61 24.8 24.8 0 0 1 5 -5.31 16.36 16.36 0 0 1 10.11 -3.7 14.66 14.66 0 0 1 5.6 1.13l0.57 0.24 1.68-1.68a0.17 0.17 0 0 1 0.11 -0.02 0.18 0.18 0 0 1 0.13 0.05 0.18 0.18 0 0 1 0 0.25l-19.2 19.17a0.17 0.17 0 0 1 -0.09 0.06zm11.18-18.63c-8 0-13.28 6.72-14.71 8.78a0.87 0.87 0 0 0 0 1 24.38 24.38 0 0 0 5.43 5.56l0.55 0.4 4.2-4.21-0.16-0.43a5 5 0 0 1 4.6 -6.89 5 5 0 0 1 1.88 0.37l0.39 0.16 0.35-0.28 3.24-3.24-0.94-0.34a14.08 14.08 0 0 0 -4.83 -0.88z"/></svg><svg id="pf_icn_hide_files_hover" viewBox="0 0 50 50" data-name="Layer 1" width="50" height="50" y="750"><defs><style>.cls-1{fill:#009edc;}</style></defs><title>pf</title><path class="cls-1" d="m20.44 33.7a0.26 0.26 0 0 0 -0.28 0.33 0.26 0.26 0 0 0 0.18 0.19 15 15 0 0 0 4.75 0.78c8.08 0 13.51-6.9 15-9a1.42 1.42 0 0 0 0 -1.61 25.08 25.08 0 0 0 -4.9 -5.21 0.27 0.27 0 0 0 -0.19 -0.07 0.26 0.26 0 0 0 -0.19 0.08 0.26 0.26 0 0 0 -0.08 0.2 0.27 0.27 0 0 0 0.1 0.2 24.52 24.52 0 0 1 4.79 5.1 0.87 0.87 0 0 1 0 1c-1.43 2.06-6.71 8.79-14.54 8.79a14.41 14.41 0 0 1 -4.59 -0.76h-0.05z"/><path class="cls-1" d="m24.14 30a5 5 0 0 0 0.88 0.08 5.23 5.23 0 0 0 0.69 0 5 5 0 0 0 4.24 -5.84z"/><path class="cls-1" d="m13.91 34.53a0.18 0.18 0 0 1 -0.13 -0.3l2.22-2.23-1-0.73a24.75 24.75 0 0 1 -5 -5.32 1.42 1.42 0 0 1 0 -1.61 24.8 24.8 0 0 1 5 -5.31 16.36 16.36 0 0 1 10.11 -3.7 14.66 14.66 0 0 1 5.6 1.13l0.57 0.24 1.68-1.68a0.17 0.17 0 0 1 0.11 -0.02 0.18 0.18 0 0 1 0.13 0.05 0.18 0.18 0 0 1 0 0.25l-19.2 19.17a0.17 0.17 0 0 1 -0.09 0.06zm11.18-18.63c-8 0-13.28 6.72-14.71 8.78a0.87 0.87 0 0 0 0 1 24.38 24.38 0 0 0 5.43 5.56l0.55 0.4 4.2-4.21-0.16-0.43a5 5 0 0 1 4.6 -6.89 5 5 0 0 1 1.88 0.37l0.39 0.16 0.35-0.28 3.24-3.24-0.94-0.34a14.08 14.08 0 0 0 -4.83 -0.88z"/></svg><svg id="pf_icn_info" viewBox="0 0 25 25" data-name="Layer 1" width="50" height="50" y="800"><defs><style>.cls-1{fill:#6d6e71;}</style></defs><title>pf</title><g id="pf_icn_info-_724-info_2x.png" data-name="724-info@2x.png"><path class="cls-1" d="m14.09 17.56a0.64 0.64 0 0 1 -0.29 -0.27 0.9 0.9 0 0 1 -0.1 -0.45v-6l-0.1-0.11-3.33 0.27v0.55a2.21 2.21 0 0 1 0.45 0.11 1.38 1.38 0 0 1 0.37 0.17 1 1 0 0 1 0.27 0.32 1 1 0 0 1 0.11 0.46v4.36a1 1 0 0 1 -0.09 0.45 0.57 0.57 0 0 1 -0.31 0.26 1.09 1.09 0 0 1 -0.29 0.07h-0.35v0.55h4.29v-0.54a1.84 1.84 0 0 1 -0.34 -0.08zm-1.69-8.11a1.28 1.28 0 0 0 0.94 -0.4 1.33 1.33 0 0 0 0.4 -1 1.35 1.35 0 0 0 -0.39 -1 1.31 1.31 0 0 0 -1.89 0 1.39 1.39 0 0 0 0 1.95 1.29 1.29 0 0 0 0.94 0.45zm0.1-9.45a12.5 12.5 0 1 0 12.5 12.5 12.5 12.5 0 0 0 -12.5 -12.5zm0 24.11a11.61 11.61 0 1 1 11.61 -11.61 11.61 11.61 0 0 1 -11.61 11.61z"/></g></svg><svg id="pf_icn_info_active" viewBox="0 0 25 25" data-name="Layer 1" width="50" height="50" y="850"><defs><style>.cls-1{fill:#009edc;}</style></defs><title>pf</title><g id="pf_icn_info_active-_724-info_2x.png" data-name="724-info@2x.png"><path class="cls-1" d="m12.4 9.45a1.28 1.28 0 0 0 0.94 -0.4 1.33 1.33 0 0 0 0.4 -1 1.35 1.35 0 0 0 -0.39 -1 1.31 1.31 0 0 0 -1.89 0 1.39 1.39 0 0 0 0 1.95 1.29 1.29 0 0 0 0.94 0.45zm1.69 8.11a0.64 0.64 0 0 1 -0.29 -0.27 0.9 0.9 0 0 1 -0.1 -0.45v-6l-0.1-0.11-3.33 0.27v0.55a2.21 2.21 0 0 1 0.45 0.11 1.38 1.38 0 0 1 0.37 0.17 1 1 0 0 1 0.27 0.32 1 1 0 0 1 0.11 0.46v4.36a1 1 0 0 1 -0.09 0.45 0.57 0.57 0 0 1 -0.31 0.26 1.09 1.09 0 0 1 -0.29 0.07h-0.35v0.55h4.29v-0.54a1.84 1.84 0 0 1 -0.34 -0.08zm-1.59-17.56a12.5 12.5 0 1 0 12.5 12.5 12.5 12.5 0 0 0 -12.5 -12.5zm0 24.11a11.61 11.61 0 1 1 11.61 -11.61 11.61 11.61 0 0 1 -11.61 11.61z"/></g></svg><svg id="pf_icn_menu" viewBox="0 0 50 50" data-name="Layer 1" width="50" height="50" y="900"><defs><style>.cls-1{fill:#fff;}</style></defs><title>pf</title><path class="cls-1" d="m32 26h-19v-2h19v2zm5-9h-24v2h24v-2zm0 14h-24v2h24v-2z"/></svg><svg id="pf_icn_notifications" viewBox="0 0 50 50" data-name="Layer 1" width="50" height="50" y="950"><defs><style>.cls-1{opacity:0.5;}.cls-2{fill:#fff;}</style></defs><title>pf</title><g class="cls-1"><path class="cls-2" d="m35.71 30.8c0-3.12-4 0-4-9.37a6.69 6.69 0 0 0 -4.5 -6.32 2.23 2.23 0 1 0 -4.43 -0.38 2.24 2.24 0 0 0 0 0.38 6.69 6.69 0 0 0 -4.5 6.32c0 9.38-4 6.25-4 9.38 0 1.42 3.23 2.61 7.65 3a3.13 3.13 0 1 0 6.13 0c4.43-0.4 7.65-1.59 7.65-3.01zm-10.71-17.41a1.34 1.34 0 0 1 1.34 1.34 1.18 1.18 0 0 1 0 0.13 6.7 6.7 0 0 0 -2.65 0 1.18 1.18 0 0 1 0 -0.13 1.34 1.34 0 0 1 1.31 -1.34zm0 23.21a2.21 2.21 0 0 1 -2.17 -2.74c0.7 0 1.43 0.06 2.17 0.06s1.47 0 2.17-0.06a2.21 2.21 0 0 1 -2.17 2.75z"/></g></svg><svg id="pf_icn_notifications_hover" viewBox="0 0 50 50" data-name="Layer 1" width="50" height="50" y="1000"><defs><style>.cls-1{fill:#fff;}</style></defs><title>pf</title><path class="cls-1" d="m35.71 30.8c0-3.12-4 0-4-9.37a6.69 6.69 0 0 0 -4.5 -6.32 2.23 2.23 0 1 0 -4.43 -0.38 2.24 2.24 0 0 0 0 0.38 6.69 6.69 0 0 0 -4.5 6.32c0 9.38-4 6.25-4 9.38 0 1.42 3.23 2.61 7.65 3a3.13 3.13 0 1 0 6.13 0c4.43-0.4 7.65-1.59 7.65-3.01zm-10.71-17.41a1.34 1.34 0 0 1 1.34 1.34 1.18 1.18 0 0 1 0 0.13 6.7 6.7 0 0 0 -2.65 0 1.18 1.18 0 0 1 0 -0.13 1.34 1.34 0 0 1 1.31 -1.34zm0 23.21a2.21 2.21 0 0 1 -2.17 -2.74c0.7 0 1.43 0.06 2.17 0.06s1.47 0 2.17-0.06a2.21 2.21 0 0 1 -2.17 2.75z"/></svg><svg id="pf_icn_rename" viewBox="0 0 50 50" data-name="Layer 1" width="50" height="50" y="1050"><defs><style>.cls-1{fill:#6d6e71;}</style></defs><title>pf</title><g id="pf_icn_rename-_830-pencil_2x.png" data-name="830-pencil@2x.png"><path class="cls-1" d="m37.37 18.88l-6.25-6.25a0.45 0.45 0 0 0 -0.63 0l-16.07 16.07a0.46 0.46 0 0 0 -0.12 0.21l-1.79 8a0.43 0.43 0 0 0 0 0.1 0.45 0.45 0 0 0 0.45 0.45h0.1l8-1.79a0.44 0.44 0 0 0 0.22 -0.11l16.09-16.05a0.45 0.45 0 0 0 0 -0.63zm-16.83 16-7 1.56 1.56-7h2.77v2.26a0.45 0.45 0 0 0 0.45 0.45h2.23v2.77zm0.89-0.72v-2.46a0.45 0.45 0 0 0 -0.43 -0.45h-2.25v-2.25a0.45 0.45 0 0 0 -0.45 -0.45h-2.49l11.65-11.62 5.62 5.62zm12.28-12.25l-5.62-5.62 2.72-2.72 5.62 5.62z"/></g></svg><svg id="pf_icn_rename_hover" viewBox="0 0 50 50" data-name="Layer 1" width="50" height="50" y="1100"><defs><style>.cls-1{fill:#009edc;}</style></defs><title>pf</title><g id="pf_icn_rename_hover-_830-pencil_2x.png" data-name="830-pencil@2x.png"><path class="cls-1" d="m37.37 18.88l-6.25-6.25a0.45 0.45 0 0 0 -0.63 0l-16.07 16.07a0.46 0.46 0 0 0 -0.12 0.21l-1.79 8a0.43 0.43 0 0 0 0 0.1 0.45 0.45 0 0 0 0.45 0.45h0.1l8-1.79a0.44 0.44 0 0 0 0.22 -0.11l16.09-16.05a0.45 0.45 0 0 0 0 -0.63zm-16.83 16-7 1.56 1.56-7h2.77v2.26a0.45 0.45 0 0 0 0.45 0.45h2.23v2.77zm0.89-0.72v-2.46a0.45 0.45 0 0 0 -0.43 -0.45h-2.25v-2.25a0.45 0.45 0 0 0 -0.45 -0.45h-2.49l11.65-11.62 5.62 5.62zm12.28-12.25l-5.62-5.62 2.72-2.72 5.62 5.62z"/></g></svg><svg id="pf_icn_upload" viewBox="0 0 50 50" data-name="Layer 1" width="50" height="50" y="1150"><defs><style>.cls-1{fill:#b6b6b6;}</style></defs><title>pf</title><g id="pf_icn_upload-_702-share_2x.png" data-name="702-share@2x.png"><path class="cls-1" d="m21.43 17a0.45 0.45 0 0 0 0.32 -0.13l2.8-2.87v14.1a0.45 0.45 0 0 0 0.89 0v-14.1l2.81 2.81a0.45 0.45 0 1 0 0.63 -0.63l-3.57-3.57a0.45 0.45 0 0 0 -0.63 0l-3.57 3.59a0.45 0.45 0 0 0 0.32 0.8zm12.05 2.68h-5.8a0.45 0.45 0 1 0 0 0.89h5.8v16.04h-17v-16.07h5.8a0.45 0.45 0 1 0 0 -0.89h-5.8a0.89 0.89 0 0 0 -0.89 0.89v16.07a0.89 0.89 0 0 0 0.89 0.89h17a0.89 0.89 0 0 0 0.89 -0.89v-16.07a0.89 0.89 0 0 0 -0.89 -0.9z"/></g></svg><svg id="pf_icn_upload_blue" viewBox="0 0 50 50" data-name="Layer 1" width="50" height="50" y="1200"><defs><style>.cls-1{fill:#009edc;}</style></defs><title>pf</title><g id="pf_icn_upload_blue-_702-share_2x.png" data-name="702-share@2x.png"><path class="cls-1" d="m21.43 17a0.45 0.45 0 0 0 0.32 -0.13l2.8-2.87v14.1a0.45 0.45 0 0 0 0.89 0v-14.1l2.81 2.81a0.45 0.45 0 1 0 0.63 -0.63l-3.57-3.57a0.45 0.45 0 0 0 -0.63 0l-3.57 3.59a0.45 0.45 0 0 0 0.32 0.8zm12.05 2.68h-5.8a0.45 0.45 0 1 0 0 0.89h5.8v16.04h-17v-16.07h5.8a0.45 0.45 0 1 0 0 -0.89h-5.8a0.89 0.89 0 0 0 -0.89 0.89v16.07a0.89 0.89 0 0 0 0.89 0.89h17a0.89 0.89 0 0 0 0.89 -0.89v-16.07a0.89 0.89 0 0 0 -0.89 -0.9z"/></g></svg><svg id="pf_img_checkbox" viewBox="0 0 20 20" data-name="Layer 1" width="50" height="50" y="1250"><defs><style>.cls-1{fill:#fff;}.cls-2{fill:#868686;}</style></defs><title>pf</title><g id="pf_img_checkbox-Base"><rect rx="3.5" ry="3.5" height="19" width="19" y=".5" x=".5" class="cls-1"/><path class="cls-2" d="m16 1a3 3 0 0 1 3 3v12a3 3 0 0 1 -3 3h-12a3 3 0 0 1 -3 -3v-12a3 3 0 0 1 3 -3h12m0-1h-12a4 4 0 0 0 -4 4v12a4 4 0 0 0 4 4h12a4 4 0 0 0 4 -4v-12a4 4 0 0 0 -4 -4z"/></g></svg><svg id="pf_img_checkbox_hover" viewBox="0 0 20 20" data-name="Layer 1" width="50" height="50" y="1300"><defs><style>.cls-1{fill:#fff;}.cls-2{fill:#009edc;}</style></defs><title>pf</title><g id="pf_img_checkbox_hover-Base"><rect rx="3.5" ry="3.5" height="19" width="19" y=".5" x=".5" class="cls-1"/><path class="cls-2" d="m16 1a3 3 0 0 1 3 3v12a3 3 0 0 1 -3 3h-12a3 3 0 0 1 -3 -3v-12a3 3 0 0 1 3 -3h12m0-1h-12a4 4 0 0 0 -4 4v12a4 4 0 0 0 4 4h12a4 4 0 0 0 4 -4v-12a4 4 0 0 0 -4 -4z"/></g></svg><svg id="pf_img_checkbox_selected" viewBox="0 0 20 20" data-name="Layer 1" width="50" height="50" y="1350"><defs><style>.cls-1{fill:#009edc;}.cls-2{fill:none;stroke:#fff;stroke-linecap:round;stroke-miterlimit:10;stroke-width:2px;}</style></defs><title>pf</title><g id="pf_img_checkbox_selected-Base"><rect width="20" rx="4" class="cls-1" ry="4" height="20"/></g><polyline points="3.53 11.34 7.15 14.97 15.76 6.35" class="cls-2"/></svg><svg id="pf_img_dropdown" viewBox="0 0 10 20" data-name="Layer 1" width="50" height="50" y="1400"><defs><style>.cls-1{fill:#a7a9ac;}</style></defs><title>pf</title><polygon points="5 20 0.24 12.71 9.76 12.71" class="cls-1"/><polygon points="5 0 9.76 7.29 0.24 7.29" class="cls-1"/></svg><svg id="pf_img_dropdown_blue" viewBox="0 0 10 20" data-name="Layer 1" width="50" height="50" y="1450"><defs><style>.cls-1{fill:#009edc;}</style></defs><title>pf</title><polygon points="5 20 0.24 12.71 9.76 12.71" class="cls-1"/><polygon points="5 0 9.76 7.29 0.24 7.29" class="cls-1"/></svg></svg>
